<?xml version="1.0" encoding="utf-8"?>
<!-- Generator: Adobe Illustrator 15.1.0, SVG Export Plug-In . SVG Version: 6.00 Build 0)  -->
<!DOCTYPE svg PUBLIC "-//W3C//DTD SVG 1.0//EN" "http://www.w3.org/TR/2001/REC-SVG-20010904/DTD/svg10.dtd">
<svg version="1.0" id="Layer_1" xmlns="http://www.w3.org/2000/svg" xmlns:xlink="http://www.w3.org/1999/xlink" x="0px" y="0px"
	 width="24px" height="24px" viewBox="0 0 24 24" enable-background="new 0 0 24 24" xml:space="preserve">
<g>
	<path fill-rule="evenodd" clip-rule="evenodd" d="M0.062,0c-0.07,0.01-0.065,0.095-0.06,0.18c0,7.939,0,15.879,0,23.818
		c8,0,15.998,0,23.998,0c0-8,0-15.999,0-23.998C16.021,0,8.042,0,0.062,0z M18.24,17.998c-1.859,0-3.719,0-5.579,0
		c0-0.199,0-0.4,0-0.6c0.548-0.074,1.138-0.102,1.319-0.541c0.014-1.072-0.504-1.615-0.719-2.459c-1.44,0-2.88,0-4.32,0
		c-0.245,0.91-1.814,3.055,0.36,2.939c0,0.221,0,0.439,0,0.66c-1.18,0-2.36,0-3.54,0c0-0.18,0-0.359,0-0.541
		c0.141-0.209,0.584-0.172,0.78-0.359c0.436-0.418,0.692-1.775,0.96-2.459c0.931-2.377,2.031-5.051,2.879-7.26
		c-0.176-0.463-0.377-0.902-0.54-1.38c1.04,0,2.08,0,3.12,0c1.021,2.554,2.164,5.569,3.3,8.399c0.434,1.084,0.779,2.828,1.979,3
		C18.24,17.598,18.24,17.799,18.24,17.998z"/>
	<path fill-rule="evenodd" clip-rule="evenodd" d="M9.362,13.199c1.12,0,2.24,0,3.359,0c-0.54-1.481-1.1-2.94-1.74-4.32
		C10.492,10.369,9.88,11.738,9.362,13.199z"/>
</g>
</svg>
